<svg width="41" height="40" viewBox="0 0 41 40" fill="none" xmlns="http://www.w3.org/2000/svg">
<g clip-path="url(#clip0_32_215)">
<path d="M38.1525 12.3417H31.3693C30.1988 12.3417 29.2464 13.2945 29.2464 14.4658V22.2731H26.7092C26.8502 21.7605 26.9025 21.1559 26.8682 20.4523V20.4523C26.8131 17.4789 26.2736 14.973 25.2645 13.0041C24.4809 11.4754 23.5664 10.5589 22.7817 10.011C23.7027 9.06406 24.2352 7.71695 24.2352 6.16328C24.2352 3.36789 22.0053 1.09375 19.2645 1.09375C16.5236 1.09375 14.2937 3.36789 14.2937 6.16328C14.2937 6.48695 14.556 6.74922 14.8796 6.74922H15.2777C15.2411 6.97031 15.2216 7.19562 15.2216 7.42445C15.2216 9.39445 16.6292 11.0409 18.4903 11.4099C18.2952 12.1343 18.1983 12.9884 18.1987 13.9587L16.7373 15.2157L13.1814 15.5033L9.07961 14.1473C8.70367 14.0223 8.27758 13.8811 7.90789 14.1477C7.54359 14.4105 7.54359 14.8708 7.54359 15.022V18.0716C7.54359 18.3952 7.80594 18.6575 8.12953 18.6575H8.82711L7.75719 22.3547C7.66727 22.6655 7.84633 22.9905 8.15719 23.0804C8.4682 23.1708 8.79297 22.9912 8.88297 22.6805L10.0472 18.6575H11.713C9.6411 24.9756 10.8233 29.193 12.6404 33.461H11.5871L7.20016 28.5559L8.12781 25.3512C8.21781 25.0403 8.03875 24.7154 7.72789 24.6255C7.41703 24.5355 7.09211 24.7146 7.00211 25.0254L6.11484 28.0908C3.37063 28.045 0.915938 29.937 0.290391 32.6591C0.21797 32.9745 0.414766 33.2888 0.730001 33.3613L1.5618 33.5527C1.3493 35.7599 2.80281 37.8423 5.01953 38.3526C5.35617 38.4302 5.6957 38.4684 6.03289 38.4684C6.86445 38.4684 7.68141 38.2353 8.40399 37.7824C9.25203 37.251 9.88391 36.4698 10.2259 35.5465L10.8822 35.6975C11.0777 35.7427 11.2632 35.7656 11.4485 35.6659C11.6209 35.573 11.7355 35.4055 11.7785 35.2163C11.8198 35.0245 11.8512 34.8296 11.873 34.6329H24.1275C24.5194 37.0694 26.5924 38.906 29.0683 38.906C31.5441 38.906 33.6173 37.0694 34.0091 34.6329H34.4563C34.4563 34.6329 34.5451 34.6339 34.5653 34.6339C34.7329 34.6339 34.9749 34.6153 35.1737 34.4131C35.2731 34.312 35.3898 34.1309 35.3809 33.8434C35.3644 33.2931 35.2818 32.7615 35.1409 32.2562C35.6076 29.4227 35.1585 27.697 34.4928 26.3465C34.9137 26.0706 35.1927 25.5953 35.1927 25.0553V23.4449H38.1523C39.3229 23.4449 40.2752 22.4921 40.2752 21.3209V14.4657C40.2754 13.2945 39.3231 12.3417 38.1525 12.3417ZM7.78172 36.7896C7.03164 37.2597 6.14414 37.4091 5.28258 37.2108H5.2825C3.69672 36.8458 2.63875 35.3916 2.71586 33.8193L9.07156 35.2821C8.80859 35.9012 8.36367 36.4249 7.78172 36.7896ZM10.7136 34.4563L1.59914 32.359C2.3025 30.4329 4.19531 29.1579 6.2643 29.2676L10.7292 34.2598C10.7253 34.3257 10.7202 34.3912 10.7136 34.4563ZM19.564 24.2458C19.3939 24.6944 19.3939 25.2474 19.3939 26.013V28.2241H17.2484V25.1906C17.2484 21.7611 19.1201 21.1499 19.9601 21.0491H25.7045C25.6814 21.8274 25.5058 22.3807 25.1723 22.7319C24.7838 23.1411 24.1188 23.3405 23.1395 23.3414L21.0363 23.3436C20.2863 23.3437 19.7909 23.6471 19.564 24.2458ZM19.3939 29.3959V30.7949C19.3886 30.7949 19.3831 30.7949 19.3775 30.7949H15.2155C15.2623 30.361 15.3975 30.0252 15.6195 29.7929C15.9496 29.4474 16.4146 29.3959 16.6624 29.3959H19.3939ZM25.6787 19.8773H20.35C20.136 19.2039 19.9452 18.4666 19.7884 17.7087L21.4084 16.6572C22.2928 16.0829 22.7529 15.2714 22.6707 14.4307C22.5979 13.6855 22.0913 13.0198 21.38 12.7348C20.7305 12.4747 20.0313 12.5564 19.4134 12.9515C19.4644 12.391 19.5592 11.8907 19.6964 11.466C19.9462 11.4402 20.1942 11.3914 20.4378 11.3198C20.9337 11.2046 21.3919 11.0211 21.8055 10.7777C22.9341 11.452 25.4161 13.6388 25.6787 19.8773ZM15.5084 5.57742C15.7848 3.70523 17.3638 2.2657 19.2645 2.2657C21.3591 2.2657 23.0634 4.01422 23.0634 6.16336C23.0634 7.91133 22.2252 9.32016 20.8736 9.94016V6.85711C20.8736 6.32328 20.6693 5.66844 19.6963 5.57984C19.6787 5.5782 19.6609 5.57742 19.6432 5.57742H15.5084ZM16.3935 7.42453C16.3935 7.19328 16.4198 6.96742 16.4716 6.7493H19.6145C19.6506 6.7532 19.677 6.75742 19.6959 6.76125C19.699 6.78297 19.7016 6.81422 19.7016 6.85711V10.2849C19.562 10.3055 19.4216 10.3159 19.2812 10.3159C19.2798 10.3159 19.2785 10.3159 19.2773 10.3159C17.687 10.3145 16.3935 9.01797 16.3935 7.42453ZM15.6339 16.4808L17.0217 16.3685C17.1454 16.3586 17.2627 16.3096 17.3568 16.2288L19.8615 14.0745L19.8619 14.0741C20.1041 13.8654 20.3626 13.7584 20.6143 13.7584C20.7263 13.7584 20.837 13.7796 20.9443 13.8226C21.2539 13.9466 21.4738 14.23 21.5045 14.5445C21.5432 14.9404 21.2824 15.3416 20.7705 15.6741L17.9795 17.4857H15.6341V16.4808H15.6339ZM13.1577 16.6811L14.462 16.5756V17.4859H12.9463C12.7498 17.4859 12.702 17.3226 12.6963 17.1856C12.6931 17.108 12.7005 16.7186 13.1577 16.6811ZM11.7709 16.2766C11.5944 16.5659 11.512 16.9045 11.5255 17.2336C11.529 17.3188 11.5398 17.4009 11.555 17.4809C11.555 17.4826 11.5541 17.4842 11.5544 17.4858H8.71563V15.2613L11.7731 16.272C11.7722 16.2736 11.7717 16.2751 11.7709 16.2766ZM12.9496 18.6577H18.1528C18.266 18.6577 18.3769 18.6248 18.4718 18.5632L18.737 18.391C18.8646 18.9549 19.0099 19.5037 19.1682 20.022C17.9732 20.3747 16.0764 21.5146 16.0764 25.1905V28.2828C15.6653 28.3658 15.179 28.5575 14.7722 28.9832C14.3434 29.432 14.0984 30.04 14.0397 30.7948H12.8577C11.6666 27.3622 11.2136 23.7094 12.9496 18.6577ZM13.9154 33.4591C13.6988 32.961 13.4901 32.4648 13.2935 31.9668H19.3774C20.1659 31.9668 20.5657 31.6078 20.5657 30.8999V28.8099V26.5988H25.1906C25.5143 26.5988 25.7766 26.3366 25.7766 26.0129C25.7766 25.6892 25.5143 25.427 25.1906 25.427H20.5699C20.5774 25.0941 20.5988 24.822 20.6598 24.6612C20.6894 24.583 20.715 24.5155 21.0368 24.5155L23.1405 24.5133C24.4581 24.512 25.4007 24.1933 26.0222 23.5387C26.0509 23.5084 26.0781 23.4766 26.1054 23.445H29.8324H34.0211V25.0554C34.0211 25.2568 33.8513 25.427 33.6504 25.427H27.8172C27.4935 25.427 27.2313 25.6892 27.2313 26.0129C27.2313 26.3366 27.4935 26.5988 27.8172 26.5988H33.3061C33.7692 27.4584 34.1858 28.528 34.161 30.218C33.0018 28.6077 31.1252 27.5723 28.9953 27.5723C27.2848 27.5723 25.6798 28.2433 24.4759 29.4616C23.4075 30.5427 22.7659 31.9457 22.6338 33.461L13.9154 33.4591ZM29.0684 37.7343C27.2366 37.7343 25.6918 36.4145 25.318 34.633H32.8187C32.4448 36.4144 30.9 37.7343 29.0684 37.7343ZM33.4843 33.4612H24.6526H23.8108C24.0984 30.8117 26.3137 28.7442 28.9953 28.7442C31.3496 28.7442 33.3267 30.2966 33.9815 32.4698C33.9836 32.4767 33.9857 32.4836 33.988 32.4904C34.0806 32.8022 34.146 33.1267 34.1814 33.4612H33.4843ZM39.1035 21.3209C39.1035 21.846 38.6769 22.2731 38.1525 22.2731H30.4183V19.2473H39.1035V21.3209ZM39.1035 18.0754H30.4183V16.8292H39.1035V18.0754ZM39.1035 15.6573H30.4183V14.4658C30.4183 13.9407 30.8449 13.5136 31.3693 13.5136H38.1525C38.6769 13.5136 39.1035 13.9408 39.1035 14.4658V15.6573Z" fill="#09A66D"/>
</g>
<defs>
<clipPath id="clip0_32_215">
<rect width="40" height="40" fill="white" transform="translate(0.275391)"/>
</clipPath>
</defs>
</svg>
