<svg width="41" height="32" viewBox="0 0 41 32" fill="none" xmlns="http://www.w3.org/2000/svg">
<path d="M3.31238 7.65704H9.49191C9.8155 7.65704 10.0778 7.39478 10.0778 7.07111C10.0778 6.74743 9.8155 6.48517 9.49191 6.48517H3.31238C2.98878 6.48517 2.72644 6.74743 2.72644 7.07111C2.72644 7.39478 2.98871 7.65704 3.31238 7.65704Z" fill="#09A66D"/>
<path d="M9.28021 10.4779H6.83911C6.51552 10.4779 6.25317 10.7402 6.25317 11.0638C6.25317 11.3875 6.51552 11.6498 6.83911 11.6498H9.28021C9.6038 11.6498 9.86614 11.3875 9.86614 11.0638C9.86614 10.7402 9.6038 10.4779 9.28021 10.4779Z" fill="#09A66D"/>
<path d="M0.861328 14.5411H6.83883C7.16242 14.5411 7.42477 14.2789 7.42477 13.9552C7.42477 13.6315 7.16242 13.3693 6.83883 13.3693H0.861328C0.537734 13.3693 0.275391 13.6315 0.275391 13.9552C0.275391 14.2789 0.537734 14.5411 0.861328 14.5411Z" fill="#09A66D"/>
<path d="M10.0778 24.9288C10.0778 24.6052 9.8155 24.3429 9.49191 24.3429H3.31238C2.98878 24.3429 2.72644 24.6052 2.72644 24.9288C2.72644 25.2525 2.98878 25.5148 3.31238 25.5148H9.49191C9.8155 25.5148 10.0778 25.2525 10.0778 24.9288Z" fill="#09A66D"/>
<path d="M9.28021 20.3502H6.83911C6.51552 20.3502 6.25317 20.6125 6.25317 20.9362C6.25317 21.2598 6.51552 21.5221 6.83911 21.5221H9.28021C9.6038 21.5221 9.86614 21.2598 9.86614 20.9362C9.86614 20.6125 9.6038 20.3502 9.28021 20.3502Z" fill="#09A66D"/>
<path d="M7.42477 18.0447C7.42477 17.7211 7.16242 17.4588 6.83883 17.4588H0.861328C0.537734 17.4588 0.275391 17.7211 0.275391 18.0447C0.275391 18.3684 0.537734 18.6307 0.861328 18.6307H6.83883C7.16242 18.6307 7.42477 18.3684 7.42477 18.0447Z" fill="#09A66D"/>
<path d="M25.2385 8.95547C25.5622 8.95547 25.8245 8.69321 25.8245 8.36953V7.47516C25.8245 7.15149 25.5622 6.88922 25.2385 6.88922C24.9149 6.88922 24.6526 7.15149 24.6526 7.47516V8.36953C24.6526 8.69321 24.9149 8.95547 25.2385 8.95547Z" fill="#09A66D"/>
<path d="M31.6812 9.55767C31.4523 9.32892 31.0813 9.32892 30.8525 9.55767L30.2201 10.1901C29.9913 10.419 29.9913 10.7899 30.2201 11.0188C30.4491 11.2476 30.8199 11.2475 31.0487 11.0188L31.6812 10.3863C31.9099 10.1575 31.9099 9.78658 31.6812 9.55767Z" fill="#09A66D"/>
<path d="M32.8684 15.4141C32.5447 15.4141 32.2825 15.6763 32.2825 16C32.2825 16.3237 32.5447 16.5859 32.8684 16.5859H33.7627C34.0864 16.5859 34.3486 16.3237 34.3486 16C34.3486 15.6763 34.0864 15.4141 33.7627 15.4141H32.8684Z" fill="#09A66D"/>
<path d="M31.0488 20.9811C30.8199 20.7524 30.4489 20.7524 30.2201 20.9811C29.9913 21.21 29.9913 21.581 30.2201 21.8098L30.8525 22.4422C31.0815 22.6711 31.4524 22.671 31.6812 22.4422C31.91 22.2133 31.91 21.8424 31.6812 21.6136L31.0488 20.9811Z" fill="#09A66D"/>
<path d="M24.6526 23.6304V24.5247C24.6526 24.8484 24.9149 25.1107 25.2385 25.1107C25.5622 25.1107 25.8245 24.8484 25.8245 24.5247V23.6304C25.8245 23.3068 25.5622 23.0445 25.2385 23.0445C24.9149 23.0445 24.6526 23.3068 24.6526 23.6304Z" fill="#09A66D"/>
<path d="M19.4288 20.9811L18.7964 21.6136C18.5675 21.8425 18.5675 22.2134 18.7964 22.4422C19.0253 22.6711 19.3962 22.671 19.625 22.4422L20.2574 21.8098C20.4862 21.5809 20.4862 21.21 20.2574 20.9811C20.0286 20.7524 19.6576 20.7524 19.4288 20.9811Z" fill="#09A66D"/>
<path d="M16.7135 15.4141C16.3899 15.4141 16.1276 15.6763 16.1276 16C16.1276 16.3237 16.3899 16.5859 16.7135 16.5859H17.6079C17.9315 16.5859 18.1938 16.3237 18.1938 16C18.1938 15.6763 17.9315 15.4141 17.6079 15.4141H16.7135Z" fill="#09A66D"/>
<path d="M20.2575 10.1901L19.6251 9.55767C19.3963 9.32892 19.0252 9.32892 18.7965 9.55767C18.5677 9.78658 18.5677 10.1575 18.7965 10.3863L19.4289 11.0188C19.6578 11.2476 20.0288 11.2475 20.2575 11.0188C20.4863 10.7899 20.4863 10.419 20.2575 10.1901Z" fill="#09A66D"/>
<path d="M28.3893 16C28.3893 15.6764 28.127 15.4141 27.8034 15.4141H25.8245V11.0638C25.8245 10.7401 25.5622 10.4778 25.2385 10.4778C24.9149 10.4778 24.6526 10.7401 24.6526 11.0638V16C24.6526 16.3237 24.9149 16.586 25.2385 16.586H27.8034C28.127 16.586 28.3893 16.3237 28.3893 16Z" fill="#09A66D"/>
<path d="M36.3489 15.9033C36.6719 15.8837 36.9178 15.6059 36.8982 15.283C36.5255 9.13429 31.4039 4.31781 25.2385 4.31781C18.7969 4.31781 13.5563 9.55844 13.5563 16.0001C13.5563 22.4416 18.7969 27.6823 25.2385 27.6823C31.0095 27.6823 35.9338 23.454 36.7904 17.7481C36.8385 17.4281 36.618 17.1298 36.2979 17.0817C35.9787 17.0338 35.6796 17.2541 35.6315 17.5742C34.862 22.7003 30.4357 26.5105 25.2385 26.5105C19.4431 26.5105 14.7281 21.7955 14.7281 16.0002C14.7281 10.2048 19.4431 5.48976 25.2385 5.48976C30.7854 5.48976 35.3932 9.82265 35.7285 15.3541C35.748 15.6769 36.0255 15.922 36.3489 15.9033Z" fill="#09A66D"/>
<path d="M25.2389 0.963196C23.1779 0.963196 21.1586 1.39077 19.3 2.19038H8.96179C8.6382 2.19038 8.37585 2.45265 8.37585 2.77632C8.37585 3.09999 8.6382 3.36226 8.96179 3.36226H17.0956C15.9959 4.07007 14.9834 4.92382 14.0908 5.90945C13.8736 6.14921 13.8919 6.51976 14.1317 6.73702C14.3716 6.95429 14.742 6.93593 14.9594 6.69609C17.5845 3.79749 21.3313 2.13507 25.2389 2.13507C32.8841 2.13507 39.1039 8.35484 39.1039 16C39.1039 23.6451 32.8841 29.8649 25.2389 29.8649C17.5937 29.8649 11.374 23.6452 11.374 16C11.374 13.3228 12.1387 10.7244 13.5855 8.48546C13.7611 8.21367 13.6831 7.85101 13.4113 7.67538C13.1395 7.49984 12.7769 7.57765 12.6012 7.84952C11.0316 10.2783 10.2021 13.0966 10.2021 16C10.2021 21.2942 12.9526 25.9577 17.0994 28.6377H8.96187C8.63828 28.6377 8.37593 28.9 8.37593 29.2237C8.37593 29.5473 8.63828 29.8096 8.96187 29.8096H19.2919C21.1169 30.5986 23.1276 31.0368 25.239 31.0368C33.5302 31.0368 40.2758 24.2913 40.2758 16C40.2758 7.70867 33.5302 0.963196 25.2389 0.963196Z" fill="#09A66D"/>
</svg>
