<svg width="32" height="32" viewBox="0 0 32 32" fill="none" xmlns="http://www.w3.org/2000/svg">
<g clip-path="url(#clip0_12762_52)">
<path d="M16.0022 0C11.4308 0 7.69385 3.73694 7.69385 8.3084C7.69385 12.8799 11.4308 16.6168 16.0022 16.6168C20.5737 16.6168 24.3106 12.8799 24.3106 8.3084C24.3106 3.73694 20.5737 0 16.0022 0Z" fill="#09A66D"/>
<path d="M30.2607 23.2563C30.043 22.7121 29.7528 22.2041 29.4263 21.7325C27.7573 19.2653 25.1814 17.6327 22.2789 17.2336C21.9161 17.1973 21.517 17.2698 21.2267 17.4875C19.7029 18.6123 17.8889 19.1927 16.0022 19.1927C14.1156 19.1927 12.3015 18.6123 10.7777 17.4875C10.4874 17.2698 10.0883 17.161 9.72556 17.2336C6.82306 17.6327 4.21084 19.2653 2.5782 21.7325C2.25167 22.2041 1.96139 22.7484 1.74375 23.2563C1.63493 23.474 1.67118 23.728 1.78 23.9457C2.07028 24.4536 2.43306 24.9616 2.75959 25.3969C3.2675 26.0863 3.81174 26.703 4.42854 27.2835C4.93646 27.7914 5.51695 28.2631 6.0975 28.7348C8.96368 30.8754 12.4104 32 15.966 32C19.5215 32 22.9683 30.8753 25.8344 28.7348C26.4149 28.2994 26.9954 27.7914 27.5034 27.2835C28.0839 26.703 28.6644 26.0862 29.1724 25.3969C29.5351 24.9252 29.8617 24.4536 30.1519 23.9457C30.3333 23.728 30.3695 23.4739 30.2607 23.2563Z" fill="#09A66D"/>
</g>
<defs>
<clipPath id="clip0_12762_52">
<rect width="32" height="32" fill="white"/>
</clipPath>
</defs>
</svg>
